<?xml version="1.0" encoding="UTF-8"?>
<svg id="Layer_4" data-name="Layer 4" xmlns="http://www.w3.org/2000/svg" viewBox="0 0 39 37">
  <defs>
    <style>
      .cls-1 {
        fill: none;
        stroke: #fff;
        stroke-miterlimit: 10;
      }

      .cls-2 {
        fill: #fff;
        stroke-width: 0px;
      }
    </style>
  </defs>
  <g>
    <path class="cls-2" d="M6.5,25c3.03,0,5.5,2.47,5.5,5.5s-2.47,5.5-5.5,5.5-5.5-2.47-5.5-5.5,2.47-5.5,5.5-5.5M6.5,24c-3.59,0-6.5,2.91-6.5,6.5s2.91,6.5,6.5,6.5,6.5-2.91,6.5-6.5-2.91-6.5-6.5-6.5h0Z"/>
    <path class="cls-2" d="M12.5,1c3.03,0,5.5,2.47,5.5,5.5s-2.47,5.5-5.5,5.5-5.5-2.47-5.5-5.5S9.47,1,12.5,1M12.5,0c-3.59,0-6.5,2.91-6.5,6.5s2.91,6.5,6.5,6.5,6.5-2.91,6.5-6.5S16.09,0,12.5,0h0Z"/>
    <path class="cls-2" d="M32.5,1c3.03,0,5.5,2.47,5.5,5.5s-2.47,5.5-5.5,5.5-5.5-2.47-5.5-5.5,2.47-5.5,5.5-5.5M32.5,0c-3.59,0-6.5,2.91-6.5,6.5s2.91,6.5,6.5,6.5,6.5-2.91,6.5-6.5-2.91-6.5-6.5-6.5h0Z"/>
    <line class="cls-1" x1="6.5" y1="16" x2="6.5" y2="25"/>
    <line class="cls-1" x1="6.5" y1="16.5" x2="33" y2="16.5"/>
    <line class="cls-1" x1="12.5" y1="12.5" x2="12.5" y2="16.5"/>
  </g>
  <line class="cls-1" x1="32.5" y1="12.5" x2="32.5" y2="16.5"/>
</svg>