<?xml version="1.0" encoding="UTF-8"?>
<svg id="Layer_6" data-name="Layer 6" xmlns="http://www.w3.org/2000/svg" viewBox="0 0 39 37">
  <defs>
    <style>
      .cls-1 {
        fill: #fff;
        stroke-width: 0px;
      }
    </style>
  </defs>
  <g id="BIR2JO.tif">
    <g>
      <path class="cls-1" d="M19.69,2.88c.7.08,1.41.14,2.1.26,1.98.33,3.82,1.05,5.54,2.1.22.13.24.25.08.44-.3.36-.59.73-.86,1.11-.17.25-.31.28-.58.12-2.17-1.29-4.53-1.91-7.05-1.88-6.5.07-12.08,4.89-13.11,11.3-1.15,7.22,3.5,13.94,10.66,15.42,7.21,1.48,14.45-3.33,15.85-10.54.59-3.05.22-5.96-1.17-8.74-.12-.24-.09-.36.12-.52.37-.27.72-.57,1.08-.85.33-.26.35-.26.54.11.88,1.65,1.45,3.4,1.68,5.26.52,4.26-.47,8.13-3.09,11.54-2.58,3.35-6,5.33-10.19,5.96-.51.08-1.03.12-1.55.18h-1.19c-.11-.02-.22-.03-.34-.05-.9-.13-1.82-.2-2.71-.4-6.01-1.37-10.74-6.38-11.77-12.45-.1-.57-.16-1.15-.24-1.73,0-.65,0-1.29,0-1.94.02-.1.05-.2.05-.3.16-2.12.71-4.14,1.74-6.01,2.53-4.63,6.41-7.37,11.63-8.2.52-.08,1.05-.12,1.58-.18.4,0,.79,0,1.19,0Z"/>
      <path class="cls-1" d="M29.42,18.5c.01,5.09-3.75,9.46-8.79,10.2-5.52.81-10.62-2.83-11.68-8.33-1.09-5.68,2.87-11.23,8.61-12.07,2.23-.33,4.35.03,6.35,1.08.41.21.41.23.14.58-.28.36-.57.71-.84,1.09-.14.2-.27.22-.49.11-3.34-1.62-7.24-.91-9.7,1.87-2.11,2.37-2.69,5.15-1.65,8.15,1.03,2.99,3.2,4.83,6.33,5.39,4.62.82,8.87-2.33,9.52-6.98.18-1.28.04-2.54-.38-3.75-.08-.22-.06-.36.14-.5.41-.3.81-.62,1.2-.95.22-.18.33-.13.43.12.49,1.13.81,2.66.81,4.01Z"/>
      <path class="cls-1" d="M19.46,19.34c-.28-.25-.55-.47-.83-.72.17-.18.32-.34.47-.5,2.63-2.74,5.26-5.49,7.88-8.24.15-.16.26-.4.32-.61.15-.64.26-1.28.4-1.92.02-.11.08-.24.17-.32,1.36-1.31,2.72-2.61,4.08-3.91.04-.03.08-.06.16-.12.07.68.15,1.33.21,1.98.07.82.06.81.89.9.74.08,1.48.19,2.22.28.03.04.06.08.08.12-.1.06-.21.1-.29.17-1.41,1.36-2.81,2.72-4.22,4.08-.1.09-.24.16-.38.18-.58.07-1.16.09-1.74.17-.19.02-.41.1-.54.23-2.84,2.62-5.66,5.26-8.49,7.89-.11.11-.23.21-.37.34Z"/>
      <path class="cls-1" d="M14.17,18.51c.01-3.3,3.13-5.66,6.3-4.75.48.14.49.18.19.56-.28.36-.58.71-.84,1.09-.16.23-.34.31-.62.3-1.09-.03-1.95.43-2.51,1.35-.55.92-.57,1.89-.05,2.82.56.99,1.45,1.49,2.59,1.43,1.1-.05,1.89-.61,2.41-1.58.09-.18.23-.35.38-.47.51-.43,1.04-.84,1.57-1.24.09-.07.21-.11.32-.16.04.12.11.24.12.36.19,2.17-1.3,4.33-3.46,5-3.17.99-6.41-1.4-6.4-4.71Z"/>
    </g>
  </g>
</svg>